<svg width="24" height="18" viewBox="0 0 24 18" fill="none" xmlns="http://www.w3.org/2000/svg">
<g id="&#240;&#159;&#166;&#134; icon &#34;dumbbell&#34;">
<path id="Vector" d="M22.9386 8.42646H22.4984V4.5109C22.4965 4.01374 22.2982 3.53746 21.9467 3.18591C21.5951 2.83435 21.1188 2.63604 20.6217 2.63421H19.8919V2.194C19.8919 1.69474 19.6935 1.21592 19.3405 0.862889C18.9875 0.509856 18.5086 0.311523 18.0094 0.311523C17.5101 0.311523 17.0313 0.509856 16.6783 0.862889C16.3252 1.21592 16.1269 1.69474 16.1269 2.194V8.42646H7.89032V2.194C7.89032 1.69474 7.69199 1.21592 7.33896 0.862889C6.98592 0.509856 6.50711 0.311523 6.00784 0.311523C5.50858 0.311523 5.02976 0.509856 4.67673 0.862889C4.3237 1.21592 4.12537 1.69474 4.12537 2.194V2.63421H3.39554C2.89781 2.63421 2.42047 2.83194 2.06852 3.18388C1.71658 3.53583 1.51885 4.01317 1.51885 4.5109V8.42646H1.07864C0.925025 8.42646 0.777697 8.48748 0.669071 8.59611C0.560445 8.70473 0.49942 8.85206 0.49942 9.00568C0.49942 9.1593 0.560445 9.30663 0.669071 9.41526C0.777697 9.52388 0.925025 9.58491 1.07864 9.58491H1.51885V13.4889C1.51763 13.7362 1.56526 13.9814 1.659 14.2103C1.75273 14.4391 1.89074 14.6473 2.0651 14.8227C2.23946 14.9981 2.44673 15.1374 2.67504 15.2326C2.90335 15.3277 3.1482 15.3768 3.39554 15.3772H4.13116V15.8058C4.13116 16.305 4.32949 16.7839 4.68252 17.1369C5.03556 17.4899 5.51437 17.6883 6.01364 17.6883C6.5129 17.6883 6.99172 17.4899 7.34475 17.1369C7.69778 16.7839 7.89612 16.305 7.89612 15.8058V9.58491H16.1327V15.8058C16.1327 16.305 16.331 16.7839 16.6841 17.1369C17.0371 17.4899 17.5159 17.6883 18.0152 17.6883C18.5144 17.6883 18.9932 17.4899 19.3463 17.1369C19.6993 16.7839 19.8976 16.305 19.8976 15.8058V15.3772H20.6275C21.1264 15.3747 21.6041 15.1746 21.9559 14.8207C22.3076 14.4668 22.5048 13.9879 22.5042 13.4889V9.58491H22.9444C23.098 9.58491 23.2453 9.52388 23.3539 9.41526C23.4626 9.30663 23.5236 9.1593 23.5236 9.00568C23.5236 8.85206 23.4626 8.70473 23.3539 8.59611C23.2453 8.48748 23.098 8.42646 22.9444 8.42646H22.9386ZM4.13116 14.2187H3.40133C3.30625 14.2179 3.21225 14.1985 3.1247 14.1614C3.03714 14.1243 2.95775 14.0703 2.89106 14.0025C2.82436 13.9348 2.77167 13.8545 2.73599 13.7664C2.7003 13.6783 2.68233 13.584 2.6831 13.4889V4.5109C2.68401 4.32069 2.75997 4.13854 2.89447 4.00404C3.02897 3.86954 3.21113 3.79358 3.40133 3.79266H4.13116V14.2187ZM6.73767 15.8058C6.73645 15.999 6.65917 16.1839 6.52256 16.3205C6.38596 16.4571 6.20103 16.5344 6.00784 16.5356C5.91276 16.5348 5.81876 16.5154 5.73121 16.4783C5.64365 16.4412 5.56426 16.3872 5.49757 16.3194C5.43087 16.2517 5.37818 16.1714 5.3425 16.0833C5.30681 15.9952 5.28884 15.9009 5.28961 15.8058V2.194C5.29052 2.0038 5.36648 1.82164 5.50098 1.68714C5.63548 1.55264 5.81764 1.47668 6.00784 1.47576C6.19923 1.47634 6.38279 1.55183 6.5192 1.68607C6.65561 1.82032 6.73403 2.00265 6.73767 2.194V15.8058ZM18.7392 15.8058C18.7392 15.9978 18.6629 16.182 18.5271 16.3177C18.3913 16.4535 18.2072 16.5298 18.0152 16.5298C17.8231 16.5298 17.639 16.4535 17.5032 16.3177C17.3674 16.182 17.2911 15.9978 17.2911 15.8058V2.194C17.2911 2.00198 17.3674 1.81782 17.5032 1.68204C17.639 1.54625 17.8231 1.46997 18.0152 1.46997C18.2072 1.46997 18.3913 1.54625 18.5271 1.68204C18.6629 1.81782 18.7392 2.00198 18.7392 2.194V15.8058ZM21.3457 13.4889C21.3465 13.584 21.3285 13.6783 21.2928 13.7664C21.2571 13.8545 21.2044 13.9348 21.1377 14.0025C21.0711 14.0703 20.9917 14.1243 20.9041 14.1614C20.8166 14.1985 20.7225 14.2179 20.6275 14.2187H19.8976V3.79266H20.6275C20.8177 3.79358 20.9998 3.86954 21.1343 4.00404C21.2688 4.13854 21.3448 4.32069 21.3457 4.5109V13.4889Z" fill="#D21312"/>
</g>
</svg>
