<svg width="22" height="22" viewBox="0 0 22 22" fill="none" xmlns="http://www.w3.org/2000/svg">
<path d="M12.1082 21.5H9.89061C9.14674 21.4994 8.43352 21.2036 7.90752 20.6776C7.38153 20.1516 7.08575 19.4384 7.08513 18.6945V14.8802L3.30489 14.9143C2.56101 14.9133 1.84784 14.6175 1.32173 14.0916C0.795613 13.5657 0.499474 12.8527 0.49823 12.1088V9.89121C0.499163 9.14712 0.795164 8.43378 1.32131 7.90763C1.84746 7.38148 2.56081 7.08548 3.30489 7.08455H7.11923L7.08513 3.30549C7.08575 2.56162 7.38153 1.84839 7.90752 1.3224C8.43352 0.7964 9.14674 0.500623 9.89061 0.5H12.1082C12.8521 0.500623 13.5653 0.7964 14.0913 1.3224C14.6173 1.84839 14.9131 2.56162 14.9137 3.30549V7.11982L18.6939 7.08455C19.438 7.08548 20.1513 7.38148 20.6775 7.90763C21.2036 8.43378 21.4996 9.14712 21.5006 9.89121V12.1088C21.4993 12.8527 21.2032 13.5657 20.6771 14.0916C20.151 14.6175 19.4378 14.9133 18.6939 14.9143H14.8796L14.9125 18.6945C14.9119 19.4382 14.6163 20.1512 14.0905 20.6772C13.5648 21.2032 12.8519 21.4991 12.1082 21.5ZM3.30489 8.26036C2.87246 8.26067 2.45783 8.43259 2.15205 8.73837C1.84627 9.04414 1.67435 9.45878 1.67404 9.89121V12.1088C1.67466 12.541 1.84672 12.9554 2.15247 13.2609C2.45821 13.5664 2.87266 13.7382 3.30489 13.7385H7.11923C7.42213 13.7385 7.71266 13.8587 7.92695 14.0728C8.14125 14.2869 8.2618 14.5773 8.26211 14.8802V18.6945C8.26274 19.1265 8.43463 19.5407 8.74012 19.8462C9.04561 20.1517 9.45976 20.3236 9.89179 20.3242H12.1094C12.5414 20.3236 12.9555 20.1517 13.261 19.8462C13.5665 19.5407 13.7384 19.1265 13.739 18.6945V14.8802C13.7394 14.5773 13.8599 14.2869 14.0742 14.0728C14.2885 13.8587 14.579 13.7385 14.8819 13.7385H18.6951C19.1273 13.7382 19.5418 13.5664 19.8475 13.2609C20.1533 12.9554 20.3253 12.541 20.3259 12.1088V9.89121C20.3256 9.45857 20.1535 9.04376 19.8475 8.73795C19.5415 8.43214 19.1266 8.26036 18.6939 8.26036H14.8796C14.5769 8.26036 14.2865 8.14027 14.0723 7.92645C13.858 7.71262 13.7373 7.42253 13.7367 7.11982V3.30549C13.7361 2.87366 13.5643 2.45969 13.2591 2.15423C12.9539 1.84878 12.54 1.67675 12.1082 1.67581H9.89061C9.45859 1.67643 9.04444 1.84833 8.73895 2.15382C8.43346 2.45931 8.26156 2.87346 8.26094 3.30549V7.11982C8.26032 7.42253 8.13963 7.71262 7.92536 7.92645C7.7111 8.14027 7.42076 8.26036 7.11805 8.26036H3.30489Z" fill="black"/>
</svg>
