<svg width="24" height="18" viewBox="0 0 24 18" fill="none" xmlns="http://www.w3.org/2000/svg">
<path d="M22.9385 8.42658H22.4983V4.51102C22.4965 4.01386 22.2982 3.53758 21.9466 3.18603C21.5951 2.83448 21.1188 2.63617 20.6216 2.63434H19.8918V2.19412C19.8918 1.69486 19.6935 1.21604 19.3405 0.863011C18.9874 0.509978 18.5086 0.311646 18.0093 0.311646C17.5101 0.311646 17.0313 0.509978 16.6782 0.863011C16.3252 1.21604 16.1269 1.69486 16.1269 2.19412V8.42658H7.89029V2.19412C7.89029 1.69486 7.69196 1.21604 7.33893 0.863011C6.98589 0.509978 6.50708 0.311646 6.00781 0.311646C5.50855 0.311646 5.02973 0.509978 4.6767 0.863011C4.32367 1.21604 4.12533 1.69486 4.12533 2.19412V2.63434H3.39551C2.89778 2.63434 2.42044 2.83206 2.06849 3.184C1.71655 3.53595 1.51882 4.01329 1.51882 4.51102V8.42658H1.07861C0.924994 8.42658 0.777666 8.4876 0.66904 8.59623C0.560415 8.70486 0.49939 8.85218 0.49939 9.0058C0.49939 9.15942 0.560415 9.30675 0.66904 9.41538C0.777666 9.524 0.924994 9.58503 1.07861 9.58503H1.51882V13.489C1.5176 13.7363 1.56523 13.9815 1.65897 14.2104C1.7527 14.4393 1.89071 14.6474 2.06507 14.8228C2.23942 14.9983 2.4467 15.1375 2.67501 15.2327C2.90332 15.3278 3.14817 15.377 3.39551 15.3773H4.13113V15.8059C4.13113 16.3052 4.32946 16.784 4.68249 17.137C5.03553 17.49 5.51434 17.6884 6.01361 17.6884C6.51287 17.6884 6.99169 17.49 7.34472 17.137C7.69775 16.784 7.89609 16.3052 7.89609 15.8059V9.58503H16.1327V15.8059C16.1327 16.3052 16.331 16.784 16.684 17.137C17.0371 17.49 17.5159 17.6884 18.0151 17.6884C18.5144 17.6884 18.9932 17.49 19.3463 17.137C19.6993 16.784 19.8976 16.3052 19.8976 15.8059V15.3773H20.6274C21.1264 15.3748 21.6041 15.1747 21.9558 14.8208C22.3076 14.4669 22.5047 13.988 22.5041 13.489V9.58503H22.9443C23.098 9.58503 23.2453 9.524 23.3539 9.41538C23.4625 9.30675 23.5236 9.15942 23.5236 9.0058C23.5236 8.85218 23.4625 8.70486 23.3539 8.59623C23.2453 8.4876 23.098 8.42658 22.9443 8.42658H22.9385ZM4.13113 14.2188H3.4013C3.30622 14.2181 3.21222 14.1986 3.12467 14.1615C3.03711 14.1244 2.95772 14.0704 2.89103 14.0027C2.82433 13.9349 2.77164 13.8547 2.73596 13.7665C2.70027 13.6784 2.6823 13.5841 2.68307 13.489V4.51102C2.68398 4.32082 2.75994 4.13866 2.89444 4.00416C3.02894 3.86966 3.2111 3.7937 3.4013 3.79278H4.13113V14.2188ZM6.73764 15.8059C6.73642 15.9991 6.65914 16.184 6.52253 16.3206C6.38593 16.4572 6.201 16.5345 6.00781 16.5357C5.91273 16.535 5.81873 16.5155 5.73118 16.4784C5.64362 16.4413 5.56423 16.3873 5.49754 16.3196C5.43084 16.2518 5.37815 16.1716 5.34247 16.0834C5.30678 15.9953 5.28881 15.901 5.28958 15.8059V2.19412C5.29049 2.00392 5.36645 1.82176 5.50095 1.68726C5.63545 1.55276 5.81761 1.4768 6.00781 1.47589C6.1992 1.47646 6.38276 1.55195 6.51917 1.6862C6.65558 1.82044 6.734 2.00277 6.73764 2.19412V15.8059ZM18.7392 15.8059C18.7392 15.9979 18.6629 16.1821 18.5271 16.3179C18.3913 16.4536 18.2072 16.5299 18.0151 16.5299C17.8231 16.5299 17.639 16.4536 17.5032 16.3179C17.3674 16.1821 17.2911 15.9979 17.2911 15.8059V2.19412C17.2911 2.0021 17.3674 1.81794 17.5032 1.68216C17.639 1.54638 17.8231 1.47009 18.0151 1.47009C18.2072 1.47009 18.3913 1.54638 18.5271 1.68216C18.6629 1.81794 18.7392 2.0021 18.7392 2.19412V15.8059ZM21.3457 13.489C21.3464 13.5841 21.3285 13.6784 21.2928 13.7665C21.2571 13.8547 21.2044 13.9349 21.1377 14.0027C21.071 14.0704 20.9916 14.1244 20.9041 14.1615C20.8165 14.1986 20.7225 14.2181 20.6274 14.2188H19.8976V3.79278H20.6274C20.8176 3.7937 20.9998 3.86966 21.1343 4.00416C21.2688 4.13866 21.3448 4.32082 21.3457 4.51102V13.489Z" fill="black"/>
</svg>
