<svg width="16" height="20" viewBox="0 0 16 20" fill="none" xmlns="http://www.w3.org/2000/svg">
<path d="M14.8822 0.191176C13.5991 0.631296 12.4857 1.46131 11.6974 2.5652C10.9092 3.66909 10.4856 4.99168 10.4858 6.34811V9.51712C10.4868 9.99173 10.6759 10.4466 11.0114 10.7822C11.347 11.1178 11.8019 11.3068 12.2765 11.3079H14.9928V19.497C14.9928 19.6304 15.0458 19.7583 15.1401 19.8527C15.2345 19.947 15.3624 20 15.4958 20C15.6286 19.9979 15.7553 19.9443 15.8492 19.8504C15.9431 19.7565 15.9968 19.6297 15.9988 19.497V0.503047C15.9968 0.370285 15.9431 0.243543 15.8492 0.149655C15.7553 0.0557669 15.6286 0.00210436 15.4958 2.95836e-05C15.4374 -0.000625673 15.3794 0.00960948 15.3248 0.0302106L14.8822 0.191176ZM12.2765 10.3018C12.0685 10.3016 11.869 10.2188 11.7219 10.0717C11.5748 9.92459 11.4921 9.72515 11.4918 9.51712V6.34811C11.4925 5.24019 11.8268 4.15815 12.4513 3.24298C13.0758 2.32781 13.9614 1.62194 14.9928 1.21733V10.3018H12.2765Z" fill="black"/>
<path d="M7.44755 0.0100098C7.31414 0.0100098 7.18619 0.0630062 7.09186 0.15734C6.99753 0.251674 6.94453 0.379619 6.94453 0.513027V5.52308H4.4898V0.513027C4.4898 0.379619 4.43681 0.251674 4.34247 0.15734C4.24814 0.0630062 4.1202 0.0100098 3.98679 0.0100098C3.85338 0.0100098 3.72543 0.0630062 3.6311 0.15734C3.53677 0.251674 3.48377 0.379619 3.48377 0.513027V5.52308H1.02904V0.513027C1.02904 0.379619 0.976049 0.251674 0.881715 0.15734C0.78738 0.0630062 0.659436 0.0100098 0.526028 0.0100098C0.392619 0.0100098 0.264675 0.0630062 0.170341 0.15734C0.0760067 0.251674 0.0230103 0.379619 0.0230103 0.513027V7.03213C0.0248686 7.6986 0.290447 8.33725 0.761715 8.80851C1.23298 9.27978 1.87163 9.54536 2.5381 9.54722H3.48377V19.4969C3.48584 19.6297 3.53951 19.7564 3.6334 19.8503C3.72728 19.9442 3.85403 19.9978 3.98679 19.9999C4.1202 19.9999 4.24814 19.9469 4.34247 19.8526C4.43681 19.7583 4.4898 19.6303 4.4898 19.4969V9.54722H5.43548C6.10252 9.54722 6.74224 9.28224 7.21391 8.81057C7.68558 8.3389 7.95056 7.69918 7.95056 7.03213V0.513027C7.95056 0.379619 7.89757 0.251674 7.80323 0.15734C7.7089 0.0630062 7.58095 0.0100098 7.44755 0.0100098ZM6.94453 7.03213C6.94453 7.43236 6.78554 7.81619 6.50254 8.09919C6.21954 8.3822 5.8357 8.54118 5.43548 8.54118H2.5381C2.13877 8.53829 1.75661 8.37837 1.47424 8.09599C1.19186 7.81362 1.03194 7.43146 1.02904 7.03213V6.52912H6.94453V7.03213Z" fill="black"/>
</svg>
