<svg width="22" height="22" viewBox="0 0 22 22" fill="none" xmlns="http://www.w3.org/2000/svg">
<g id="&#240;&#159;&#166;&#134; icon &#34;medical cross&#34;">
<path id="Vector" d="M12.1083 21.5H9.89068C9.1468 21.4994 8.43358 21.2036 7.90758 20.6776C7.38159 20.1516 7.08581 19.4384 7.08519 18.6945V14.8802L3.30495 14.9143C2.56107 14.9133 1.8479 14.6175 1.32179 14.0916C0.795674 13.5657 0.499535 12.8527 0.498291 12.1088V9.89121C0.499224 9.14712 0.795225 8.43378 1.32137 7.90763C1.84752 7.38148 2.56087 7.08548 3.30495 7.08455H7.11929L7.08519 3.30549C7.08581 2.56162 7.38159 1.84839 7.90758 1.3224C8.43358 0.7964 9.1468 0.500623 9.89068 0.5H12.1083C12.8521 0.500623 13.5654 0.7964 14.0913 1.3224C14.6173 1.84839 14.9131 2.56162 14.9137 3.30549V7.11982L18.694 7.08455C19.4381 7.08548 20.1514 7.38148 20.6776 7.90763C21.2037 8.43378 21.4997 9.14712 21.5006 9.89121V12.1088C21.4994 12.8527 21.2033 13.5657 20.6771 14.0916C20.151 14.6175 19.4379 14.9133 18.694 14.9143H14.8796L14.9126 18.6945C14.9119 19.4382 14.6163 20.1512 14.0906 20.6772C13.5648 21.2032 12.8519 21.4991 12.1083 21.5ZM3.30495 8.26036C2.87252 8.26067 2.45789 8.43259 2.15211 8.73837C1.84634 9.04414 1.67441 9.45878 1.6741 9.89121V12.1088C1.67473 12.541 1.84678 12.9554 2.15253 13.2609C2.45827 13.5664 2.87272 13.7382 3.30495 13.7385H7.11929C7.4222 13.7385 7.71272 13.8587 7.92702 14.0728C8.14132 14.2869 8.26186 14.5773 8.26218 14.8802V18.6945C8.2628 19.1265 8.43469 19.5407 8.74018 19.8462C9.04567 20.1517 9.45982 20.3236 9.89185 20.3242H12.1094C12.5415 20.3236 12.9556 20.1517 13.2611 19.8462C13.5666 19.5407 13.7385 19.1265 13.7391 18.6945V14.8802C13.7394 14.5773 13.86 14.2869 14.0743 14.0728C14.2886 13.8587 14.5791 13.7385 14.882 13.7385H18.6952C19.1274 13.7382 19.5418 13.5664 19.8476 13.2609C20.1533 12.9554 20.3254 12.541 20.326 12.1088V9.89121C20.3257 9.45857 20.1536 9.04376 19.8476 8.73795C19.5415 8.43214 19.1266 8.26036 18.694 8.26036H14.8796C14.5769 8.26036 14.2866 8.14027 14.0723 7.92645C13.8581 7.71262 13.7374 7.42253 13.7368 7.11982V3.30549C13.7361 2.87366 13.5644 2.45969 13.2592 2.15423C12.9539 1.84878 12.5401 1.67675 12.1083 1.67581H9.89068C9.45865 1.67643 9.0445 1.84833 8.73901 2.15382C8.43352 2.45931 8.26162 2.87346 8.261 3.30549V7.11982C8.26038 7.42253 8.13969 7.71262 7.92543 7.92645C7.71116 8.14027 7.42082 8.26036 7.11811 8.26036H3.30495Z" fill="#D21312"/>
</g>
</svg>
